<svg width="100" height="100" viewBox="0 0 100 100" fill="none" xmlns="http://www.w3.org/2000/svg">
<path fill-rule="evenodd" clip-rule="evenodd" d="M67.1287 22.7257L5 84.8544H7.87414C10.2291 84.8544 12.5051 84.0054 14.2847 82.463L23.5039 74.4731C24.5656 73.5529 25.8294 72.8733 27.2157 72.6448C29.9936 72.1869 32.0616 72.3602 35.2709 73.0723C69.023 81.0095 79.2078 71.0741 81.4929 41.1703C83.7059 33.0718 86.1892 30.4797 94 30.6568C91.5681 22.2113 88.8163 17.9104 83.3686 16.4054C77.421 14.7623 71.4918 18.3626 67.1287 22.7257ZM66.3123 30.3458C68.5723 32.1768 70.435 34.4496 71.7867 37.0251C73.1383 39.6006 73.9505 42.4248 74.1734 45.3249C74.3964 48.2249 74.0256 51.14 73.0835 53.8919C72.1415 56.6438 70.6481 59.1746 68.6946 61.3296C66.7411 63.4846 64.3687 65.2186 61.7222 66.4255C59.0758 67.6323 56.211 68.2868 53.303 68.3487C50.395 68.4107 47.5049 67.8789 44.8095 66.7858C42.114 65.6927 39.6698 64.0614 37.6264 61.9915L42.3163 57.3614C43.7302 58.7935 45.4212 59.9221 47.2862 60.6784C49.1511 61.4347 51.1506 61.8026 53.1626 61.7597C55.1746 61.7169 57.1567 61.2641 58.9877 60.4291C60.8187 59.5941 62.4601 58.3944 63.8117 56.9034C63.8366 56.8759 63.8615 56.8483 63.8862 56.8206C61.0667 55.958 59.0163 53.3349 59.0163 50.233C59.0163 46.4289 62.1001 43.345 65.9043 43.345C66.357 43.345 66.7996 43.3887 67.2279 43.4721C66.943 42.2989 66.5149 41.162 65.951 40.0877C65.0159 38.3058 63.7271 36.7333 62.1635 35.4664L66.3123 30.3458Z" fill="white"/>
</svg>
