<svg width="30" height="28" viewBox="0 0 30 28" fill="none" xmlns="http://www.w3.org/2000/svg">
<path d="M27.6855 27.7988H26.2966C26.0539 27.7988 25.8571 27.6021 25.8571 27.3594C25.8571 27.1166 26.0539 26.9199 26.2966 26.9199H27.6855C28.4771 26.9199 29.1211 26.276 29.1211 25.4844V2.51562C29.1211 1.72402 28.4771 1.08008 27.6855 1.08008H4.74404C3.9525 1.08008 3.3085 1.72402 3.3085 2.51562V4.74148C3.3085 5.24229 2.90109 5.64969 2.40029 5.64969H0.908203C0.892031 5.64969 0.878906 5.66287 0.878906 5.67898V6.51348C0.878906 6.75623 0.682148 6.95293 0.439453 6.95293C0.196758 6.95293 0 6.75623 0 6.51348V5.67898C0 5.17818 0.407402 4.77078 0.908203 4.77078H2.40029C2.41646 4.77078 2.42959 4.7576 2.42959 4.74148V2.51562C2.42959 1.23945 3.46787 0.201172 4.74404 0.201172H27.6855C28.9617 0.201172 30 1.23945 30 2.51562V25.4844C30 26.7605 28.9617 27.7988 27.6855 27.7988Z" fill="white"/>
<path d="M0.439453 7.97609C0.682148 7.97609 0.878906 8.17279 0.878906 8.41555V10.4141C0.878906 10.4302 0.892031 10.4434 0.908203 10.4434H2.40029C2.90109 10.4434 3.3085 10.8508 3.3085 11.3516V16.1278C3.3085 16.6286 2.90109 17.036 2.40029 17.036H0.908203C0.892031 17.036 0.878906 17.0492 0.878906 17.0653V21.8004C0.878906 21.8165 0.892031 21.8297 0.908203 21.8297H2.40029C2.90109 21.8297 3.3085 22.2371 3.3085 22.7379V25.4844C3.3085 26.276 3.9525 26.9199 4.74404 26.9199H24.4336C24.6763 26.9199 24.873 27.1166 24.873 27.3594C24.873 27.6021 24.6763 27.7988 24.4336 27.7988H4.74404C3.46787 27.7988 2.42959 26.7605 2.42959 25.4844V22.7379C2.42959 22.7217 2.41646 22.7086 2.40029 22.7086H0.908203C0.407402 22.7086 0 22.3012 0 21.8004V17.0652C0 16.5644 0.407402 16.157 0.908203 16.157H2.40029C2.41646 16.157 2.42959 16.1438 2.42959 16.1277V11.3516C2.42959 11.3354 2.41646 11.3223 2.40029 11.3223H0.908203C0.407402 11.3223 0 10.9149 0 10.4141V8.41561C0 8.17285 0.196758 7.97609 0.439453 7.97609Z" fill="white"/>
<path d="M6.67312 6.2099C6.67324 5.85757 6.81053 5.52663 7.05937 5.2782C7.30828 5.02929 7.63922 4.89218 7.99125 4.89218C8.34363 4.89218 8.67492 5.02947 8.92441 5.2789L12.4044 8.76265C13.4094 8.11191 14.5663 7.76978 15.7731 7.76978C16.9799 7.76978 18.1368 8.11185 19.1418 8.76265L22.6213 5.27931C22.8701 5.0297 23.2017 4.89224 23.5549 4.89224C23.907 4.89224 24.2379 5.02935 24.4864 5.2779C24.7356 5.52663 24.8729 5.85769 24.873 6.20995C24.8732 6.56199 24.7363 6.89304 24.4874 7.1423L21.0052 10.6277C21.0967 10.7695 21.1825 10.9148 21.2617 11.0625C21.3765 11.2763 21.2961 11.5427 21.0823 11.6575C20.8685 11.7721 20.602 11.6919 20.4872 11.478C20.3681 11.2559 20.2317 11.0399 20.0818 10.836C19.9533 10.6611 19.9717 10.4187 20.1251 10.2652L23.8655 6.5212C23.9485 6.43812 23.9941 6.32767 23.9941 6.21019C23.9941 6.09282 23.9484 5.98267 23.8651 5.89958C23.7823 5.81673 23.6721 5.77109 23.5549 5.77109C23.437 5.77109 23.3265 5.81673 23.2435 5.90005L19.5046 9.64302C19.3511 9.79677 19.1082 9.81517 18.9332 9.68632C18.011 9.00745 16.9182 8.64863 15.773 8.64863C14.6279 8.64863 13.5351 9.00745 12.6128 9.68632C12.4378 9.81511 12.1949 9.79665 12.0414 9.64302L8.30273 5.90023C8.21941 5.81697 8.10879 5.77109 7.99119 5.77109C7.87394 5.77109 7.76373 5.81673 7.68058 5.89988C7.59767 5.98261 7.55203 6.09282 7.55197 6.21019C7.55191 6.32767 7.59756 6.43812 7.68041 6.52109L11.421 10.2652C11.5744 10.4187 11.5928 10.6612 11.4642 10.836C10.7852 11.7598 10.4263 12.8538 10.4263 14C10.4263 15.1461 10.7852 16.2401 11.4642 17.1639C11.5928 17.3387 11.5744 17.5812 11.421 17.7348L7.68058 21.4788C7.59762 21.5619 7.55197 21.6723 7.55203 21.7898C7.55203 21.9072 7.59773 22.0174 7.68094 22.1004C7.85215 22.2716 8.13117 22.2715 8.30262 22.0999L12.0415 18.357C12.195 18.2033 12.4379 18.1848 12.6129 18.3137C13.5351 18.9925 14.6279 19.3514 15.7731 19.3514C16.9182 19.3514 18.011 18.9925 18.9333 18.3137C19.1083 18.1848 19.3512 18.2033 19.5047 18.357L23.2434 22.0998C23.415 22.2714 23.694 22.2717 23.8655 22.1001C23.9484 22.0173 23.9941 21.9072 23.9941 21.7898C23.9942 21.6723 23.9486 21.5619 23.8657 21.4789L20.1251 17.7348C19.9717 17.5812 19.9533 17.3387 20.0819 17.1639C20.7609 16.2401 21.1198 15.1461 21.1198 14C21.1198 13.7013 21.0949 13.4017 21.0457 13.1094C21.0054 12.8701 21.1668 12.6434 21.4062 12.6031C21.6454 12.5632 21.8722 12.7243 21.9124 12.9636C21.9697 13.304 21.9987 13.6526 21.9987 14C21.9987 15.2078 21.6564 16.366 21.0054 17.3724L24.4876 20.8579C24.7363 21.107 24.8732 21.4381 24.873 21.7901C24.8729 22.1424 24.7356 22.4734 24.4867 22.7218C23.9728 23.2358 23.1363 23.2355 22.6217 22.7211L19.1418 19.2373C18.1367 19.8881 16.9799 20.2302 15.773 20.2302C14.5662 20.2302 13.4093 19.888 12.4043 19.2373L8.92418 22.7213C8.4099 23.2354 7.5733 23.2358 7.05961 22.7221C6.81047 22.4734 6.67318 22.1424 6.67307 21.7901C6.67295 21.4381 6.80982 21.107 7.05867 20.8577L10.5407 17.3724C9.88975 16.366 9.5475 15.2078 9.5475 14C9.5475 12.7921 9.88975 11.6339 10.5407 10.6275L7.05855 7.14212C6.80988 6.89298 6.67301 6.56193 6.67312 6.2099Z" fill="white"/>
<path d="M26.0156 10.1621C26.7749 10.1621 27.3926 10.7798 27.3926 11.5391V16.4609C27.3926 17.2202 26.7749 17.8379 26.0156 17.8379C25.2564 17.8379 24.6387 17.2202 24.6387 16.4609V11.5391C24.6387 10.7798 25.2564 10.1621 26.0156 10.1621ZM25.5176 16.4609C25.5176 16.7356 25.741 16.959 26.0156 16.959C26.2903 16.959 26.5137 16.7356 26.5137 16.4609V11.5391C26.5137 11.2644 26.2903 11.041 26.0156 11.041C25.741 11.041 25.5176 11.2644 25.5176 11.5391V16.4609Z" fill="white"/>
</svg>
